<?xml version="1.0" encoding="utf-8"?>
<!-- Generator: Adobe Illustrator 27.5.0, SVG Export Plug-In . SVG Version: 6.00 Build 0)  -->
<svg version="1.1" id="Layer_1" xmlns="http://www.w3.org/2000/svg" xmlns:xlink="http://www.w3.org/1999/xlink" x="0px" y="0px"
	 viewBox="0 0 2000 2000" style="enable-background:new 0 0 2000 2000;" xml:space="preserve">
<rect style="fill:#FFFFFF;" width="2000" height="2000"/>
<g>
	<path d="M1513.88,1486.505c0,159.991-127.464,289.69-284.679,289.69c-26.128,0-51.433-3.576-75.455-10.294l0.741,0.8
		c-106.771-25.093-158.674-44.962-288.326-6.47c-6.67,1.976-13.54,4.106-20.646,6.411c-0.059,0.024-0.13,0.035-0.188,0.047
		c-23.175,6.2-47.492,9.505-72.573,9.505c-157.227,0-284.679-129.699-284.679-289.69c0-97.995,47.821-184.625,121.005-237.034
		c53.821-48.103,107.641-113.723,161.462-196.836c45.903-86.984,131.934-145.498,230.505-145.498
		c84.878,0,160.462,43.398,209.106,110.947l0.129-2.176c68.161,111.606,136.322,195.131,204.483,250.598l-0.494-0.094
		C1475.235,1319.526,1513.88,1398.428,1513.88,1486.505z"/>
	<g>
		<path d="M941.982,714.195c-7.602,38.735-21.478,81.831-56.133,119.284c-10.586,11.44-59.286,64.071-131.312,65.155
			c-75.781,1.14-127.305-55.535-153.365-84.2c-89.5-98.448-83.521-225.436-82.195-253.603
			c1.448-30.754,6.083-108.208,58.138-185.441c51.485-76.386,163.181-173.065,252.6-147.35
			C970.377,268.491,967.09,586.268,941.982,714.195z"/>
		<path d="M544.374,922.355c13.258,40.494,79.423,242.589-18.38,317.089c-70.429,53.648-198.775,20.479-268.638-45.107
			c-161.498-151.611-63.384-526.111,49.989-550.714C391.01,625.466,502.246,793.68,544.374,922.355z"/>
	</g>
	<g>
		<path d="M1058.018,714.195c7.602,38.735,21.478,81.831,56.133,119.284c10.586,11.44,59.286,64.071,131.312,65.155
			c75.781,1.14,127.305-55.535,153.365-84.2c89.5-98.448,83.521-225.436,82.195-253.603c-1.448-30.754-6.083-108.208-58.138-185.441
			c-51.485-76.386-163.181-173.065-252.6-147.35C1029.623,268.491,1032.91,586.268,1058.018,714.195z"/>
		<path d="M1455.626,922.355c-13.258,40.494-79.423,242.589,18.381,317.089c70.429,53.648,198.775,20.479,268.638-45.107
			c161.498-151.611,63.384-526.111-49.989-550.714C1608.99,625.466,1497.754,793.68,1455.626,922.355z"/>
	</g>
</g>
</svg>
